<?xml version="1.0" standalone="no"?>
<!DOCTYPE svg PUBLIC "-//W3C//DTD SVG 1.1//EN" "http://www.w3.org/Graphics/SVG/1.1/DTD/svg11.dtd" >
<!--
2013-9-30: Created.
-->
<svg>
<metadata>
Created by iconfont
</metadata>
<defs>

<font id="iconfont" horiz-adv-x="1024" >
  <font-face
    font-family="iconfont"
    font-weight="500"
    font-stretch="normal"
    units-per-em="1024"
    ascent="896"
    descent="-128"
  />
    <missing-glyph />
    
    <glyph glyph-name="icon09" unicode="&#58904;" d="M512 627.21239c-138.962628 0-251.698864-91.52553-252.567687-230.118028 0-5.536087 0.001023-12.870122 0.001023-22.460548 0-159.708422 252.566664-437.440887 252.566664-437.440887s252.567687 282.848996 252.567687 431.228395c0 11.768021 0.004093 4.77577 0.004093 4.77577l0.017397 19.581987C764.589177 532.276181 651.500909 627.21239 512 627.21239zM732.340376 371.195505c0 0-0.00307 6.099928-0.00307-4.166903 0-129.444141-220.336282-376.197034-220.336282-376.197034S291.663718 233.1208 291.663718 372.448032c0 8.365528 0 14.763239-0.001023 19.593244-0.00307-0.468674-0.017397-0.932232-0.017397-1.401929 0 0 0.014327 31.650861 0.017397 1.401929 0.757278 120.905674 99.108295 200.75221 220.337305 200.75221 121.698728 0 220.354702-82.821287 220.354702-204.514907L732.340376 371.195505zM259.411846 395.486748c0 0.539282 0.017397 1.070378 0.020467 1.607614C259.42822 431.767046 259.411846 395.486748 259.411846 395.486748zM512.010233 512.839503c-60.227168 0-109.051155-48.821939-109.051155-109.046578s48.823988-109.046578 109.051155-109.046578 109.051155 48.821939 109.051155 109.046578S572.237401 512.839503 512.010233 512.839503zM512.010233 325.445532c-43.272319 0-78.350681 35.07689-78.350681 78.347392 0 43.270503 35.078362 78.347392 78.350681 78.347392s78.350681-35.07689 78.350681-78.347392C590.360914 360.522422 555.282552 325.445532 512.010233 325.445532z"  horiz-adv-x="1024" />

    
    <glyph glyph-name="default" unicode="&#58932;" d="M512 760.8C257.50528 760.8 51.2 554.503936 51.2 300c0-254.485504 206.30528-460.8 460.8-460.8 254.503936 0 460.8 206.314496 460.8 460.8C972.8 554.503936 766.503936 760.8 512 760.8zM511.997952-109.601024C285.784064-109.601024 102.4 73.785088 102.4 300.001024s183.384064 409.6 409.597952 409.6c226.217984 0 409.602048-183.384064 409.602048-409.6S738.215936-109.601024 511.997952-109.601024zM725.602304 448.435968c-7.998464 7.998464-20.964352 7.998464-28.961792 0L457.694208 209.489664 327.360512 339.824384c-7.998464 7.999488-20.965376 7.999488-28.962816 0l-7.240704-7.238656c-7.998464-8.000512-7.998464-20.9664 0-28.962816l144.816128-144.816128 7.23968-7.240704 0.001024 0c7.99744-7.998464 20.965376-7.999488 28.962816 0l7.23968 7.23968c0.00512 0.00512 0.009216 0.01024 0.014336 0.01536l253.4144 253.413376c7.999488 7.998464 7.999488 20.965376 0 28.962816L725.602304 448.435968z"  horiz-adv-x="1024" />

    
    <glyph glyph-name="15tian" unicode="&#58885;" d="M953.229167 500.311165c-23.271006 55.019081-56.582693 104.428398-99.008968 146.854673-42.426275 42.426275-91.835591 75.737962-146.854673 99.008968C650.395 770.27162 589.885881 782.488873 527.520485 782.488873S404.64597 770.27162 347.675444 746.174805c-55.019081-23.271006-104.428398-56.582693-146.854673-99.008968-42.426275-42.426275-75.737962-91.835591-99.008968-146.854673-24.096814-56.970526-36.314067-117.478621-36.314067-179.845041 0-120.279411 45.975101-234.1826 129.456421-320.726675l22.095227 21.313422c-77.932953 80.791048-120.852462 187.124841-120.852462 299.413254 0 58.235332 11.402701 114.719788 33.889855 167.885662 21.723767 51.359738 52.826136 97.489358 92.442412 137.105634 39.617299 39.616276 85.745896 70.718645 137.105634 92.442412 53.165874 22.487154 109.650329 33.889855 167.885662 33.889855 58.235332 0 114.719788-11.402701 167.885662-33.889855 51.358715-21.723767 97.489358-52.826136 137.105634-92.442412 39.616276-39.617299 70.718645-85.745896 92.442412-137.105634 22.487154-53.165874 33.888831-109.650329 33.888831-167.885662 0-58.235332-11.402701-114.719788-33.888831-167.885662-21.723767-51.358715-52.826136-97.489358-92.442412-137.105634-39.617299-39.616276-85.74692-70.718645-137.105634-92.442412-53.165874-22.487154-109.650329-33.888831-167.885662-33.888831-52.937676 0-104.626919 9.473769-153.631006 28.15934l-10.937097-28.684296c52.509934-20.020986 107.878986-30.173207 164.568103-30.173207 62.365396 0 122.874515 12.217253 179.845041 36.314067 55.019081 23.271006 104.428398 56.582693 146.854673 99.008968s75.737962 91.835591 99.008968 146.854673c24.096814 56.970526 36.314067 117.479645 36.314067 179.845041S977.325981 443.340639 953.229167 500.311165zM427.845345 115.372026 427.845345 513.606982l-62.579267 0c-26.548656-46.786583-73.957409-84.09121-142.226259-111.884207l0-68.26885c46.756907 15.170514 88.476077 37.274952 125.159558 66.37164l0-284.45354L427.845345 115.372026zM655.409201 166.573151c-37.927821 0-61.33595 21.482267-70.164013 64.476477L505.59615 212.086741c18.96391-68.26885 68.892043-102.403275 149.813051-102.403275 94.817506 2.548032 143.470599 47.408753 146.018631 134.641513-3.793396 79.646991-46.164413 121.367185-127.055744 125.159558-30.341029 0-56.891731-8.237615-79.645968-24.65247l9.481955 98.609879 176.360683 0 0 66.372663L535.938202 509.81461l-15.169491-223.769436 66.370617-1.89721c13.896498 17.688871 36.031635 27.171849 66.372663 28.445866 44.237527-1.274016 66.994834-25.927509 68.269873-73.957409C719.233831 194.367171 697.128371 170.366547 655.409201 166.573151z"  horiz-adv-x="1024" />

    
    <glyph glyph-name="iconfontcart" unicode="&#58960;" d="M235.097303 196.866982C247.384597 160.417152 286.382106 132.376068 324.772759 132.376068L861.658537 132.376068 880.429732 132.376068 885.649214 150.541854 1009.08775 580.154957C1021.388907 622.967661 993.187631 660.786325 949.051586 660.786325L424.585365 660.786325C410.791718 660.786325 399.609756 649.520738 399.609756 635.623932 399.609756 621.727125 410.791718 610.461538 424.585365 610.461538L949.051586 610.461538C959.924 610.461538 964.161052 604.779539 961.106394 594.148171L837.667859 164.535068 861.658537 182.700855 324.772759 182.700855C307.742153 182.700855 287.789837 197.047529 282.395194 213.050549L73.600164 832.433664C69.16437 845.592294 54.980454 852.636656 41.919502 848.167687 28.858551 843.698719 21.86648 829.408727 26.302275 816.250097L235.097303 196.866982ZM399.609756-6.017094C399.609756 49.570129 354.881911 94.632478 299.707317 94.632478 244.532723 94.632478 199.804878 49.570129 199.804878-6.017094 199.804878-61.604318 244.532723-106.666667 299.707317-106.666667 354.881911-106.666667 399.609756-61.604318 399.609756-6.017094ZM249.756098-6.017094C249.756098 21.776518 272.120021 44.307693 299.707317 44.307693 327.294613 44.307693 349.658537 21.776518 349.658537-6.017094 349.658537-33.810705 327.294613-56.341879 299.707317-56.341879 272.120021-56.341879 249.756098-33.810705 249.756098-6.017094ZM924.097562-6.017094C924.097562 49.570129 879.369715 94.632478 824.195121 94.632478 769.020529 94.632478 724.292683 49.570129 724.292683-6.017094 724.292683-61.604318 769.020529-106.666667 824.195121-106.666667 879.369715-106.666667 924.097562-61.604318 924.097562-6.017094ZM774.243902-6.017094C774.243902 21.776518 796.607825 44.307693 824.195121 44.307693 851.782419 44.307693 874.146342 21.776518 874.146342-6.017094 874.146342-33.810705 851.782419-56.341879 824.195121-56.341879 796.607825-56.341879 774.243902-33.810705 774.243902-6.017094Z"  horiz-adv-x="1024" />

    
    <glyph glyph-name="iconfontplayfill" unicode="&#58907;" d="M817.088 411.04l-512 323.744C295.232 741.024 282.752 741.408 272.576 735.776 262.336 730.144 256 719.392 256 707.744l0-647.328c0-11.648 6.336-22.4 16.576-28.032 4.8-2.656 10.112-3.968 15.424-3.968 5.952 0 11.904 1.664 17.088 4.928l512 323.616C826.368 362.816 832 373.024 832 384 832 394.976 826.368 405.184 817.088 411.04z"  horiz-adv-x="1024" />

    
    <glyph glyph-name="jiantou" unicode="&#58973;" d="M406.869333 419.157333c0 6.144 2.730667 11.946667 7.509333 16.384 8.874667 7.509333 22.186667 6.144 29.696-2.730667l65.536-79.189333 70.997333 79.872c7.850667 8.533333 21.162667 9.557333 29.696 1.706667 8.533333-7.850667 9.557333-21.162667 1.706667-29.696l-77.824-87.722667c-6.485333-7.509333-15.701333-11.605333-25.258667-11.264-9.557333 0-18.773333 4.778667-24.917333 12.288l-72.021333 87.381333C408.234667 409.6 406.869333 414.378667 406.869333 419.157333zM154.282667 384c0 197.290667 160.426667 357.717333 357.717333 357.717333s357.717333-160.426667 357.717333-357.717333-160.426667-357.717333-357.717333-357.717333S154.282667 186.709333 154.282667 384zM827.392 384c0 174.08-141.653333 315.392-315.392 315.392S196.608 558.08 196.608 384 337.92 68.608 512 68.608 827.392 209.92 827.392 384z"  horiz-adv-x="1024" />

    
    <glyph glyph-name="asmkticon0255" unicode="&#59409;" d="M800 480c0 159.36-128.64 288-288 288S224 639.36 224 480c0-59.52 17.92-114.56 48.64-160l0 0 0.64-0.64c0.64-0.64 0.64-1.28 1.28-1.92l211.2-303.36c0 0 0-0.64 0.64-0.64L486.4 12.8l0 0c5.76-7.68 14.72-12.8 25.6-12.8 10.24 0 19.84 5.12 25.6 12.8l0 0 0.64 1.28c0 0 0 0 0 0l211.2 303.36c0.64 0.64 0.64 1.28 1.28 1.92l0.64 0.64 0 0C782.08 365.44 800 420.48 800 480zM719.36 341.12C719.36 341.12 719.36 341.12 719.36 341.12l-0.64-0.64-0.64-1.28L512 43.52 305.92 339.2l-0.64 1.28 0 0c0 0 0 0.64-0.64 0.64C277.12 382.08 262.4 430.08 262.4 480c0 137.6 112 249.6 249.6 249.6s249.6-112 249.6-249.6C761.6 430.08 746.88 382.08 719.36 341.12zM512 480m-128 0a20 20 0 1 0 256 0 20 20 0 1 0-256 0Z"  horiz-adv-x="1024" />

    
    <glyph glyph-name="complete" unicode="&#58917;" d="M484.1 273.2c-18.4-18.4-46-18.4-64.4-3.1L287.8 395.9l-30.7-33.8L389 236.4c36.8-33.8 92.1-33.8 128.9 3.1l270 285.4-33.8 30.7-270-282.4zM508.7 828.6c-242.4 0-441.8-196.4-441.8-441.8S263.3-55 508.7-55s441.8 196.4 441.8 441.8S751.1 828.6 508.7 828.6z m0-837.7c-217.9 0-395.8 178-395.8 395.8s178 395.8 395.8 395.8 395.8-178 395.8-395.8-177.9-395.8-395.8-395.8z"  horiz-adv-x="1024" />

    
    <glyph glyph-name="tool-" unicode="&#58889;" d="M848.256-108.928c-38.4 0-74.496 14.976-101.632 42.112l-228.288 228.224-10.56-1.856c-38.4-13.76-78.656-20.736-119.68-20.736A356.48 356.48 0 0 0 32 495.04c0 48.96 9.856 96.448 29.312 141.312l7.872 17.92c3.2 3.392 4.864 3.392 5.952 3.392l8.32-5.568 210.048-209.344 147.008 142.656-216.768 221.44 23.104 15.168a356.48 356.48 0 0 0 497.408-326.976c0-41.024-6.976-81.28-20.736-119.552l-2.624-7.424 228.992-231.488a144 144 0 0 0 0-203.392 142.72 142.72 0 0 0-101.632-42.112z m-73.536 70.336c19.648-19.776 45.632-30.528 73.472-30.528 27.776 0 53.888 10.752 73.472 30.528 19.648 19.648 30.4 45.76 30.4 73.472s-10.752 53.888-30.4 73.472l-250.24 250.176 6.976 11.072a311.936 311.936 0 0 1 25.984 125.44A316.544 316.544 0 0 1 316.8 803.2l-21.76-4.992 200.96-207.616c0.896-1.216 1.088-4.864-1.344-7.296L297.856 386.304 90.304 589.568l-10.304-23.168a316.672 316.672 0 0 1 308.16-387.712 315.52 315.52 0 0 1 125.504 25.984l12.416 5.376 248.64-248.64z"  horiz-adv-x="1024" />

    
    <glyph glyph-name="gift" unicode="&#59060;" d="M888 576H640q53 0 90.5 37.5T768 704t-37.5 90.5T640 832t-90.5-37.5T512 704q0 53-37.5 90.5T384 832t-90.5-37.5T256 704t37.5-90.5T384 576H136q-30 0-51-21t-21-51v-112q0-30 21-51t51-21h-8v-312q0-30 21-51t51-21h624q30 0 51 21t21 51V320h-8q30 0 51 21t21 51V504q0 30-21 51t-51 21z m-504 72q-23 0-39.5 16.5T328 704t16.5 39.5T384 760t39.5-16.5T440 704v-56h-56z m92-640H200V320h276v-312z m0 384H136V504h340v-112z m108 312q0 23 16.5 39.5T640 760t39.5-16.5T696 704t-16.5-39.5T640 648h-56v56z m240-696H548V320h276v-312z m64 384H548V504h340v-112z"  horiz-adv-x="1024" />

    
    <glyph glyph-name="cart-full" unicode="&#58926;" d="M261.144817-29.284927a99.468841 98.700851 0 1 1 198.937682 0 99.468841 98.700851 0 1 1-198.937682 0ZM777.176761-29.284927a99.468841 98.700851 0 1 1 198.937682 0 99.468841 98.700851 0 1 1-198.937682 0ZM754.449966 766.408911l-127.713782 127.713782L321.417758 588.747379l127.713782-127.713782 126.462243 126.519131-127.713781 127.713782 52.365495 52.337051 127.713781-127.713782 126.490688 126.490688z m52.337051-52.337051l127.713782-127.713782L629.125484 281.039652l-127.713781 127.713782 126.519131 126.462244 127.685338-127.685338 52.337051 52.337051-127.713782 127.713781 126.519132 126.490688zM43.519396 581.778586v-0.369772H116.336162l142.106471-459.570506h713.718087l164.918598 463.154456-105.413647 0.28444-129.847085-364.738045H331.942056L189.835586 680.109665H43.519396v-0.398217A49.492646 49.492646 0 0 1 0 630.759239a49.492646 49.492646 0 0 1 43.519396-48.980653z"  horiz-adv-x="1137" />

    
    <glyph glyph-name="weibo" unicode="&#58882;" d="M853.997037 329.102222c-3.128889-2.37037-5.214815-6.068148-5.214815-10.24 0-2.275556 0.568889-4.361481 1.611852-6.257778 1.801481-2.37037 4.645926-3.982222 7.964445-3.982222 2.654815 0 5.025185 1.042963 6.826666 2.654815 3.413333 2.465185 5.594074 6.447407 5.594074 10.903704 0 1.991111-0.474074 3.887407-1.232592 5.594074-1.896296 2.56-4.93037 4.171852-8.343704 4.171852-2.844444 0.094815-5.404444-1.042963-7.205926-2.844445z m-40.77037-11.188148c-15.075556-1.611852-26.832593-13.937778-27.591111-29.108148 0-13.463704 12.894815-22.755556 29.013333-20.764445 16.118519 1.896296 29.013333 14.222222 29.013333 27.591112 0 13.368889-12.136296 24.272593-30.53037 22.565926l0.094815-0.284445zM909.842963 771.792593C695.371852 771.792593 521.481481 597.902222 521.481481 383.431111s173.89037-388.361481 388.361482-388.361481 388.361481 173.89037 388.361481 388.361481S1124.314074 771.792593 909.842963 771.792593z m174.743704-479.194074c-35.081481-74.808889-151.514074-111.312593-237.605926-104.770371C765.155556 194.275556 659.911111 221.392593 649.102222 320.474074c0 0-5.594074 44.657778 37.736297 102.968889 0 0 62.482963 87.419259 135.395555 112.355556 72.912593 24.936296 81.445926-17.256296 81.445926-42.002963-3.887407-21.048889-11.188148-33.564444 16.308148-24.936297 0 0 71.68 33.564444 101.167408 3.697778 23.798519-23.798519 3.887407-56.50963 3.887407-56.50963s-9.860741-11.188148 10.42963-14.885926c20.29037-3.697778 84.385185-33.46963 49.114074-108.562962z m-70.731852 206.791111c-7.774815 0-14.127407 6.352593-14.127408 14.127407s6.352593 14.127407 14.127408 14.127407 87.798519 16.308148 77.368889-78.222222c0-0.18963 0.094815-0.474074 0.094815-0.758518s0-0.568889-0.094815-0.758519c-1.137778-6.637037-6.826667-11.662222-13.748148-11.662222h-0.18963c-7.86963 0-14.222222 6.352593-14.222222 14.222222v0.094815c0.094815-0.094815 13.937778 62.862222-49.208889 48.82963z m148.574815-67.318519c-2.37037-16.118519-10.24-21.333333-19.721482-21.333333-11.188148 0-20.48 3.128889-20.48 14.411852 0.284444 7.68 1.896296 14.791111 4.645926 21.428148 0.474074 2.37037 10.05037 28.065185-7.016296 66.37037-31.194074 52.432593-94.151111 53.285926-101.546667 50.251852-8.343704-2.939259-17.92-4.835556-27.875555-5.12-1.991111 0.758519-11.188148 10.05037-11.188149 21.333333v0.094815c0 9.386667 6.257778 17.445926 14.791112 20.005926 0.18963 0.474074 0.379259 0.758519 0.758518 0.948148 2.275556 2.465185 5.12 4.361481 8.343704 5.594074 2.275556-2.180741 33.46963 5.973333 63.905185-1.137777 54.423704-12.515556 129.042963-75.851852 95.383704-172.847408z m-309.001482-13.274074C767.905185 414.90963 698.785185 369.114074 698.785185 311.940741c0-57.078519 69.12-99.934815 154.642963-96.142222 85.522963 3.697778 154.832593 57.647407 154.832593 114.725925-0.094815 57.078519-69.30963 92.065185-154.832593 88.272593z m58.216296-143.644444c-26.168889-33.564444-78.222222-50.251852-128.568888-23.04-13.748148 7.68-22.945185 22.091852-23.04 38.684444-0.18963 16.592593-9.765926 80.402963 76.231111 90.453333 86.091852 10.05037 101.546667-72.343704 75.377777-106.097777z"  horiz-adv-x="1820" />

    
    <glyph glyph-name="message" unicode="&#58921;" d="M867.6 804.3H153.3c-49.3 0-89.3-40-89.3-86.2v-560.4c0-46.2 40-86.2 89.3-86.2h246.3s6.1-6.1 15.4-18.4c3.1-3.1 6.1-6.1 9.3-12.3 0 0 6.1-9.3 9.3-12.3 27.7-43.1 49.3-64.7 83.1-64.7s58.5 21.6 86.2 64.7c21.6 33.8 27.7 43.1 27.7 43.1h240.2c49.3 0 89.3 40 89.3 86.2V718.1c-3.2 49.2-43.2 86.2-92.5 86.2z m46.3-646.7c0-24.7-18.4-43.1-43.1-43.1H627.5c-6.1 0-9.3 0-15.4-3.1-9.3-6.1-18.4-12.3-27.7-27.7-3.1-6.1-21.6-33.8-21.6-33.8-18.4-30.8-33.8-43.1-46.2-43.1-12.3 0-24.7 12.3-46.2 43.1-3.1 3.1-6.1 12.3-9.3 12.3-3.1 6.1-6.1 9.3-9.3 12.3-18.4 24.7-30.8 37-52.4 37H153.3c-24.7 0-43.1 18.4-43.1 43.1V714.9c0 24.7 21.6 43.1 46.2 43.1h714.5c24.7 0 46.2-18.4 46.2-43.1v-557.4h-3.2v0.1zM230.2 419.4c0-27.2 22.1-49.3 49.3-49.3 27.2 0 49.3 22.1 49.3 49.3 0 27.2-22.1 49.3-49.3 49.3-27.2-0.1-49.3-22.1-49.3-49.3z m230.9 0c0-27.2 22.1-49.3 49.3-49.3 27.2 0 49.3 22.1 49.3 49.3 0 27.2-22.1 49.3-49.3 49.3s-49.3-22.1-49.3-49.3z m227.9 0c0-27.2 22.1-49.3 49.3-49.3s49.3 22.1 49.3 49.3c0 27.2-22.1 49.3-49.3 49.3S689 446.6 689 419.4z"  horiz-adv-x="1024" />

    
    <glyph glyph-name="QQ" unicode="&#58915;" d="M512.003 831.512c-247.158 0-447.515-200.357-447.515-447.515 0-247.132 200.357-447.509 447.515-447.509 247.156 0 447.509 200.377 447.509 447.509 0.005 247.158-200.353 447.515-447.509 447.515zM687.132 283.345s-12.578-34.311-35.651-65.131c0 0 41.225-14.007 37.743-50.423 0 0 1.379-40.615-88.037-37.813 0 0-62.907 4.903-81.764 31.512h-16.625c-18.859-26.62-81.744-31.512-81.744-31.512-89.447-2.799-88.048 37.813-88.048 37.813-3.49 36.416 37.731 50.423 37.731 50.423-23.051 30.82-35.628 65.131-35.628 65.131-55.91-90.345-50.317 12.608-50.317 12.608 10.494 60.93 54.496 100.843 54.496 100.843-6.292 55.337 16.769 65.13 16.769 65.13 4.843 171.185 151.968 168.195 155.052 168.112 3.095 0.083 150.201 3.073 155.051-168.1 0 0 23.054-9.805 16.769-65.13 0 0 44.024-39.915 54.499-100.843 0.003-0.012 5.583-102.965-50.296-12.62z"  horiz-adv-x="1024" />

    
    <glyph glyph-name="weixin" unicode="&#58883;" d="M579.52785 384.44329a24.676479 24.676479 0 0 1-23.346609-24.233189 24.233189 24.233189 0 0 1 23.346609-21.721212c17.583838 0 29.55267 10.786724 29.552669 21.721212a27.040693 27.040693 0 0 1-29.552669 24.233189zM502.395382 497.038961a27.779509 27.779509 0 0 1 29.55267 29.55267 27.336219 27.336219 0 0 1-29.55267 29.552669 31.32583 31.32583 0 0 1-34.133333-29.552669A31.916883 31.916883 0 0 1 502.395382 497.038961zM512 896A512 512 0 1 1 1024 384 512 512 0 0 1 512 896zM415.215007 254.263781a275.87417 275.87417 0 0 0-82.599711 13.298701l-84.225108-42.555844 24.233189 71.665223c-59.105339 41.669264-94.273016 94.273016-94.273016 158.550073 0 113.482251 106.8329 200.219336 236.421356 200.219336 115.107648 0 217.655411-68.41443 237.751227-165.199423a116.141991 116.141991 0 0 1-22.460029 2.511977C517.171717 492.901587 429.400289 408.380952 429.400289 304.94660899999997a200.958153 200.958153 0 0 1 6.64935-50.091775 174.508514 174.508514 0 0 0-20.834632-0.88658zM763.049928 171.95959600000003l16.697258-59.105339-63.390476 35.463203a359.508225 359.508225 0 0 0-71.665224-12.559884c-111.709091 0-200.219336 76.689177-200.219336 171.848773s88.658009 171.848773 200.219336 171.848774c105.94632 0 200.958153-76.689177 200.958153-171.848774 0-53.342569-35.906494-100.922367-82.599711-135.203463zM337.63925 556.1442999999999a32.951227 32.951227 0 0 1-35.906494-29.552669 33.54228 33.54228 0 0 1 35.906494-29.55267 28.666089 28.666089 0 0 1 29.552669 29.55267 28.222799 28.222799 0 0 1-29.552669 29.552669zM710.446176 384.44329a24.085426 24.085426 0 0 1-23.346609-24.233189 23.642136 23.642136 0 0 1 23.346609-21.721212 26.745166 26.745166 0 0 1 29.55267 21.721212 26.745166 26.745166 0 0 1-29.55267 24.233189z"  horiz-adv-x="1024" />

    
    <glyph glyph-name="arrow-up" unicode="&#58888;" d="M704.00000033 384c0-12.8-4.266667-21.333333-12.8-29.866667l-256-256.00000001c-17.066667-17.066667-42.666667-17.066667-59.73333401 1e-8s-17.066667 42.666667 1e-8 59.733334l226.13333399 226.133333-226.13333399 226.133333c-17.066667 17.066667-17.066667 42.666667-1e-8 59.733334s42.666667 17.066667 59.73333401 1e-8l256-256.00000001c8.533333-8.533333 12.8-17.066667 12.8-29.866667z"  horiz-adv-x="1024" />

    
    <glyph glyph-name="zuoyoujiantou" unicode="&#58975;" d="M300.18 712.18c-17.573 17.574-17.573 46.066 0 63.64 17.574 17.573 46.066 17.573 63.64 0l360-360c17.573-17.574 17.573-46.066 0-63.64l-360-360c-17.574-17.573-46.066-17.573-63.64 0-17.573 17.574-17.573 46.066 0 63.64L628.36 384 300.18 712.18z"  horiz-adv-x="1024" />

    
    <glyph glyph-name="umidd17" unicode="&#58884;" d="M938.7008 226.47466699999995L938.7008 646.587733c0 90.555733-73.5232 164.078933-164.1472 164.078933L249.378133 810.666667c-90.555733 0-164.078933-73.48906699-164.078933-164.078933l0-525.2096c0-90.555733 73.454933-164.078933 164.07893301-164.078933l525.20959999 0c80.725333 0 147.8656 58.368 161.553067 135.099733-43.52 18.8416-232.106667 100.283733-330.376533 147.182933-74.786133-90.589867-153.088-144.930133-271.121067-144.930133s-196.81279999 72.704-187.357867 161.655467c6.2464 58.402133 46.2848 153.9072 220.296533 137.5232 91.682133-8.6016 133.666133-25.736533 208.418133-50.414933 19.3536 35.4304 35.4304 74.513067 47.616 116.0192L292.0448 459.434667l0 32.8704 164.0448 0 0 58.9824L256 551.287467l1e-8 36.181333 200.12373299 0L456.123733 672.6656c0 0 1.809067 13.312 16.520533 13.31200001l82.056533-1e-8 0-98.474667 213.333333 0 0-36.181333-213.333333-1e-8 0-58.98239999 174.045867 0c-16.00853301-65.1264-40.277333-124.962133-70.690133-177.220267C708.608 296.82346700000005 938.7008 226.47466699999995 938.7008 226.47466699999995L938.7008 226.47466699999995 938.7008 226.47466699999995 938.7008 226.47466699999995zM321.57013299 151.00586699999997c-124.7232 0-144.452267 78.7456-137.83039999 111.65013299 6.5536 32.733867 42.666667 75.502933 112.0256 75.50293301 79.6672 0 151.04-20.445867 236.714667-62.088533C472.302933 197.66613299999995 398.370133 151.00586699999997 321.57013299 151.00586699999997L321.57013299 151.00586699999997 321.57013299 151.00586699999997zM321.57013299 151.00586699999997"  horiz-adv-x="1024" />

    
    <glyph glyph-name="circle-7" unicode="&#58880;" d="M512.00249609 834C263.47155928 834 62 632.5534060499999 62 384.00249609 62 135.48279346000004 263.47155928-66 512.00249609-66c248.52594463 0 449.99750391 201.48279346 449.99750391 450.00249609C961.99500693 632.5571510699999 760.52844072 834 512.00249609 834z m0-863.99520644c-228.64616543 0-413.99770342 185.37150938-413.99770254 413.99770253 0 228.65115849 185.35153799 413.99395839 413.99770254 413.99395928 228.64117237 0 413.99271036-185.3427999 413.99271036-413.99395928 0-228.62619317-185.35153799-413.99770342-413.99271036-413.99770253z m74.40749297 570.23983212H402.7748082v25.37960977h218.96716289v-17.41696348c-86.09120068-112.96747354-104.0112123-203.53992451-109.48607754-345.373396h-31.34878594c5.96917617 144.81805957 33.34225606 236.88717364 105.50288145 337.41074971z"  horiz-adv-x="1024" />

    
    <glyph glyph-name="xiangxiajiantou1" unicode="&#58967;" d="M962.56 642.56l-450.048-443.392-450.56 443.392c-14.336 13.824-36.864 13.824-51.2 0-13.824-13.312-14.336-35.84-0.512-49.664l0.512-0.512 475.648-467.456c7.168-7.168 15.872-10.24 25.6-10.24 8.704 0 18.432 3.584 25.6 10.24l475.136 467.456c14.336 12.8 15.36 34.816 2.56 48.64l-1.536 1.536c-14.336 14.336-37.376 14.336-51.2 0z"  horiz-adv-x="1024" />

    
    <glyph glyph-name="circle-arrow-right-o" unicode="&#59342;" d="M512-128A512 512 0 1 1 512 896a512 512 0 0 1 0-1024M512 819.2c240 0 435.2-195.2 435.2-435.2s-195.2-435.2-435.2-435.2S76.8 144 76.8 384 272 819.2 512 819.2M287.04 345.6h357.184l-147.776-147.84a38.464 38.464 0 0 1 54.4-54.272l213.248 213.376a38.4 38.4 0 0 1 0 54.272L550.784 624.448a38.464 38.464 0 0 1-54.336-54.272l147.84-147.84H286.976a38.4 38.4 0 1 1 0-76.8"  horiz-adv-x="1024" />

    
    <glyph glyph-name="xinaixin" unicode="&#58890;" d="M1066.667 793.6C930.133 921.6 725.333 930.133 588.8 802.133 443.733 930.133 238.933 921.6 102.4 793.6c-136.533-136.533-136.533-349.867 0-486.4l401.067-401.067c42.666-42.666 110.933-42.666 153.6 0L1058.133 307.2c145.067 128 145.067 349.867 8.534 486.4z m-51.2-435.2L614.4-42.667c-17.067-17.066-34.133-17.066-51.2 0L153.6 358.4c-110.933 102.4-110.933 281.6 0 384 102.4 102.4 273.067 102.4 384 8.533l51.2-42.666 51.2 42.666c110.933 102.4 273.067 93.867 384-8.533 93.867-110.933 93.867-281.6-8.533-384z"  horiz-adv-x="1169" />

    
    <glyph glyph-name="love-o" unicode="&#58886;" d="M1066.667 793.6C930.133 921.6 725.333 930.133 588.8 802.133 443.733 930.133 238.933 921.6 102.4 793.6c-136.533-136.533-136.533-349.867 0-486.4l401.067-401.067c42.666-42.666 110.933-42.666 153.6 0L1058.133 307.20000000000005c145.067 128 145.067 349.867 8.534 486.4z m-51.2-435.2L614.4-42.66700000000003c-17.067-17.066-34.133-17.066-51.2 0L153.6 358.4c-110.933 102.4-110.933 281.6 0 384 102.4 102.4 273.067 102.4 384 8.533l51.2-42.666 51.2 42.666c110.933 102.4 273.067 93.867 384-8.533 93.867-110.933 93.867-281.6-8.533-384z"  horiz-adv-x="1169" />

    
    <glyph glyph-name="weixin1" unicode="&#58887;" d="M71.168 195.77l23.97 83.898a296.68 296.68 0 0 0-48.593 162.514c0 173.242 151.39 314.182 337.455 314.182 136.169 0 257.49-75.637 310.202-190.674l2.025-0.07c0.652 0 1.303 0.093 1.955 0.093 4.352 0 8.587-0.442 12.893-0.628 5.027-0.21 10.077-0.256 15.034-0.698 4.934-0.442 9.751-1.257 14.615-1.908 4.748-0.652 9.565-1.187 14.243-2.048 5.376-1.001 10.59-2.374 15.849-3.631 3.98-0.954 8.006-1.745 11.916-2.863 6.144-1.745 12.101-3.886 18.083-5.98 2.816-1.001 5.725-1.84 8.494-2.91 6.982-2.7 13.731-5.795 20.434-8.983 1.629-0.768 3.328-1.42 4.933-2.234 7.843-3.887 15.43-8.146 22.83-12.684l1.165-0.651c62.65-38.796 108.334-99.538 124.23-170.45l0.139-0.512c1.769-7.96 3.049-16.081 4.05-24.25 0.116-0.978 0.372-1.932 0.488-2.91a256.396 256.396 0 0 0-39.121-166.26l19.619-68.654a34.91 34.91 0 0 0-43.171-43.171l-72.169 20.643a304.058 304.058 0 0 0-187.555-39.796c-2.467 0.279-4.91 0.721-7.354 1.07a299.823 299.823 0 0 0-25.67 4.375c-2.28 0.512-4.492 1.07-6.772 1.63a307.735 307.735 0 0 0-59.439 21.015l-0.884 0.395a293.655 293.655 0 0 0-55.669 34.956c-0.93 0.745-1.815 1.536-2.746 2.304a285.42 285.42 0 0 0-20.27 18.27c-1.746 1.745-3.421 3.513-5.12 5.282a265.146 265.146 0 0 0-16.338 18.735c-0.954 1.14-2.048 2.164-2.955 3.35-88.716-19.665-183.227-4.584-259.747 41.217l-87.901-25.111a34.84 34.84 0 0 0-43.148 43.147z m811.055-12.87c24.226 33.094 37.05 71.657 37.05 111.593 0 111.058-99.189 201.402-221.091 201.402-7.866 0-15.64-0.442-23.32-1.14-110.987-10.659-197.771-96.396-197.771-200.262a186.415 186.415 0 0 1 29.16-99.56c4.725-7.518 10.008-14.662 15.663-21.481l1.257-1.56a213.83 213.83 0 0 1 41.006-37.236 232.467 232.467 0 0 1 22.715-13.917l0.768-0.419a233.89 233.89 0 0 1 51.083-19.619c1.443-0.372 2.91-0.698 4.399-1.047 7.145-1.676 14.452-3.002 21.806-4.05 2.095-0.279 4.143-0.628 6.237-0.86a233.798 233.798 0 0 1 156.905 37.073 34.793 34.793 0 0 0 28.905 4.491l26.694-7.61-6.866 23.994a34.979 34.979 0 0 0 5.4 30.208zM384 686.545c-147.572 0-267.636-109.614-267.636-244.363 0-48.524 15.57-95.442 45.032-135.634a35.022 35.022 0 0 0 5.4-30.23l-11.218-39.285 42.473 12.125a34.76 34.76 0 0 0 28.905-4.492c57.39-38.144 129.14-53.225 198.4-43.45a253.277 253.277 0 0 0-18.083 93.277c0 124.556 90.647 229.492 213.574 261.19C575.255 635.299 484.887 686.545 384 686.545z m-93.09-186.181a34.91 34.91 0 1 1-0.024 69.841 34.91 34.91 0 0 1 0.023-69.841m186.182 0a34.91 34.91 0 1 1-0.023 69.841 34.91 34.91 0 0 1 0.023-69.841M605.09 384a34.91 34.91 0 1 1 0.023-69.841 34.91 34.91 0 0 1-0.023 69.841m186.182 0a34.91 34.91 0 1 1 0.023-69.841 34.91 34.91 0 0 1-0.023 69.841"  horiz-adv-x="1024" />

    
    <glyph glyph-name="Search" unicode="&#58936;" d="M469.333333 170.666667c141.162667 0 256 114.837333 256 256s-114.837333 256-256 256-256-114.837333-256-256 114.837333-256 256-256z m0 597.333333c188.202667 0 341.333333-153.109333 341.333334-341.333333 0-188.202667-153.130667-341.333333-341.333334-341.333334-188.224 0-341.333333 153.130667-341.333333 341.333334 0 188.224 153.109333 341.333333 341.333333 341.333333z m414.229334-695.210667a42.837333 42.837333 0 0 0 0-60.352 42.837333 42.837333 0 0 0-60.352 0l-99.136 99.136a408.64 408.64 0 0 1 60.352 60.373334l99.136-99.157334z"  horiz-adv-x="1024" />

    
    <glyph glyph-name="zhifubao" unicode="&#58924;" d="M619.392 293.333333c53.418667 86.656 72.533333 169.856 72.533333 169.856H514.432V522.112h209.834667v26.026667H514.474667V640H419.114667v-91.861333H228.352v-26.026667h190.72v-60.629333H255.104v-26.026667h329.984c0-5.205333 0-5.205333-5.717333-8.661333 0-31.189333-24.789333-74.538667-43.861334-109.226667-244.181333 86.698667-314.752 34.688-333.824 26.026667-162.133333-103.978667-9.557333-233.984 15.232-230.528 171.690667-34.688 282.325333 31.189333 358.656 112.64 5.717333-5.162667 9.514667-5.162667 15.232-5.162667C644.181333 194.517333 896 85.333333 896 85.333333V215.338667c-38.144 3.456-177.408 46.805333-276.608 77.994666z m-123.989333-39.850666c-120.192-138.666667-263.253333-95.36-286.122667-86.698667C152.021333 180.650667 132.949333 276.053333 203.52 305.493333c120.192 34.688 225.109333-5.205333 301.44-39.850666a297.728 297.728 0 0 1-9.557333-12.117334z"  horiz-adv-x="1024" />

    
    <glyph glyph-name="xiangshangjiantou" unicode="&#59475;" d="M722.944 495.104l-176.64 163.84v-638.976c0-17.92-14.336-31.744-31.744-31.744-17.92 0-31.744 14.336-31.744 31.744v640L299.008 494.592c-13.312-11.776-33.28-10.752-45.056 2.56-11.776 13.312-10.752 33.28 2.56 45.056L515.584 775.68l251.904-233.472c12.8-11.776 13.824-32.256 1.536-45.056-13.312-13.312-33.28-14.336-46.08-2.048z"  horiz-adv-x="1024" />

    
    <glyph glyph-name="xiangxiajiantou2" unicode="&#59083;" d="M722.944 269.312l-176.64-163.84V744.448c0 17.92-14.336 31.744-31.744 31.744-17.92 0-31.744-14.336-31.744-31.744v-640L299.008 269.824c-13.312 11.776-33.28 10.752-45.056-2.56-11.776-13.312-10.752-33.28 2.56-45.056l259.072-233.472 251.904 233.472c12.8 11.776 13.824 32.256 1.536 45.056-13.312 13.312-33.28 14.336-46.08 2.048z"  horiz-adv-x="1024" />

    
    <glyph glyph-name="jt-left" unicode="&#58881;" d="M229.27543056 381.83962126999995c0 6.79373686 2.60978915 12.7796818 7.83066201 17.97984204l364.70767819 364.72709627c5.22087285 5.22087285 11.22623589 7.80865485 18.01997273 7.80865485s12.77968181-2.58907653 17.99926013-7.80865485l39.12741926-39.14683733c5.22087285-5.22087285 7.82936748-11.20552329 7.82936747-17.99926013 0-6.77431877-2.60978915-12.7796818-7.82936747-17.99926014l-307.58229333-307.58229332 307.58358787-307.56287527c5.22087285-5.22087285 7.82936748-11.20552329 7.82936747-17.99926011s-2.60978915-12.79909989-7.830662-18.01997275l-39.12612474-39.12612473c-5.22087285-5.22087285-11.20552329-7.82936748-17.99926012-7.82936746s-12.79909989 2.60978915-18.01997275 7.83066199l-364.70767818 364.70897274c-5.21828377 5.21828377-7.83066201 11.22623589-7.830662 18.01997273z"  horiz-adv-x="1024" />

    


  </font>
</defs>
</svg>
